<svg id="work_black_24dp" xmlns="http://www.w3.org/2000/svg" width="48" height="48" viewBox="0 0 48 48">
  <path id="パス_17" data-name="パス 17" d="M0,0H48V48H0Z" fill="none"/>
  <path id="パス_18" data-name="パス 18" d="M36.917,9.683H29.157V5.842A3.847,3.847,0,0,0,25.278,2H17.519a3.847,3.847,0,0,0-3.88,3.842V9.683H5.88a3.831,3.831,0,0,0-3.86,3.842L2,34.654A3.847,3.847,0,0,0,5.88,38.5H36.917a3.847,3.847,0,0,0,3.88-3.842V13.525A3.847,3.847,0,0,0,36.917,9.683Zm-11.639,0H17.519V5.842h7.759Z" transform="translate(2.602 2.602)" fill="#dd1b57"/>
</svg>
