<svg id="location_city_black_24dp" xmlns="http://www.w3.org/2000/svg" width="48" height="48" viewBox="0 0 48 48">
  <path id="パス_19" data-name="パス 19" d="M0,0H48V48H0Z" fill="none"/>
  <path id="パス_20" data-name="パス 20" d="M26.256,20V8L20.442,2,14.628,8v4H3V40H37.884V20Zm-15.5,16H6.876V32h3.876Zm0-8H6.876V24h3.876Zm0-8H6.876V16h3.876ZM22.38,36H18.5V32H22.38Zm0-8H18.5V24H22.38Zm0-8H18.5V16H22.38Zm0-8H18.5V8H22.38ZM34.008,36H30.132V32h3.876Zm0-8H30.132V24h3.876Z" transform="translate(4.371 1.581)" fill="#dd1b57"/>
</svg>
